# Blender 3.5.1
# www.blender.org
mtllib bake_test.mtl
o Cube
v 1.000000 1.000000 -1.000000
v 1.000000 -1.000000 -1.000000
v 1.000000 1.000000 1.000000
v 1.000000 -1.000000 1.000000
v -1.000000 1.000000 -1.000000
v -1.000000 -1.000000 -1.000000
v -1.000000 1.000000 1.000000
v -1.000000 -1.000000 1.000000
v 1.000000 -1.000000 -7.971934
v -1.000000 -1.000000 -7.971934
v 1.000000 1.000000 -7.971934
v -1.000000 1.000000 -7.971934
v 1.000000 5.044313 1.000000
v -1.000000 5.044313 1.000000
v 1.000000 5.044313 -1.000000
v -1.000000 5.044313 -1.000000
v -1.000000 -1.022156 -1.000000
v 1.000000 -1.022156 -1.000000
v 1.000000 -1.022156 1.000000
v -1.000000 -1.022156 1.000000
v -1.000000 3.726647 -1.000000
v 1.000000 3.726647 1.000000
v 1.000000 3.726647 -1.000000
v -1.000000 3.726647 1.000000
v -1.000000 5.044313 -2.871507
v 1.000000 5.044313 -2.871507
v -1.000000 3.726647 -2.871507
v 1.000000 3.726647 -2.871507
vn -0.0000 1.0000 -0.0000
vn -0.0000 -0.0000 1.0000
vn -1.0000 -0.0000 -0.0000
vn -0.0000 -1.0000 -0.0000
vn 1.0000 -0.0000 -0.0000
vn -0.0000 -0.0000 -1.0000
vt 0.625000 0.500000
vt 0.375000 0.500000
vt 0.625000 0.750000
vt 0.375000 0.750000
vt 0.625000 0.250000
vt 0.875000 0.500000
vt 0.125000 0.500000
vt 0.375000 0.250000
vt 0.625000 0.000000
vt 0.625000 1.000000
vt 0.375000 1.000000
vt 0.375000 0.000000
vt 0.125000 0.750000
vt 0.375000 0.500000
vt 0.125000 0.500000
vt 0.375000 0.250000
vt 0.625000 0.500000
vt 0.875000 0.500000
vt 0.625000 0.250000
vt 0.625000 0.750000
vt 0.875000 0.750000
vt 0.625000 1.000000
vt 0.625000 0.000000
vt 0.625000 0.500000
vt 0.875000 0.500000
vt 0.625000 0.250000
vt 0.625000 0.250000
vt 0.875000 0.500000
vt 0.625000 0.500000
vt 0.625000 0.750000
vt 0.625000 0.000000
vt 0.625000 1.000000
vt 0.875000 0.500000
vt 0.625000 0.250000
vt 0.625000 0.750000
vt 0.625000 0.500000
vt 0.625000 0.000000
vt 0.625000 1.000000
vt 0.875000 0.500000
vt 0.625000 0.250000
vt 0.625000 0.500000
vt 0.875000 0.500000
vt 0.625000 0.250000
vt 0.625000 0.500000
s 0
usemtl light
f 23/36/4 21/33/4 27/42/4 28/44/4
usemtl Material
f 16/25/1 15/24/1 26/41/1 25/39/1
f 4/4/2 3/3/2 7/10/2 8/11/2
f 8/12/3 7/9/3 5/5/3 6/8/3
f 6/7/4 2/2/4 4/4/4 8/13/4
f 2/2/5 1/1/5 3/3/5 4/4/5
f 2/2/4 6/7/4 10/15/4 9/14/4
f 10/16/6 12/19/6 11/17/6 9/14/6
f 5/6/1 1/1/1 11/17/1 12/18/1
f 1/1/5 2/2/5 9/14/5 11/17/5
f 6/8/3 5/5/3 12/19/3 10/16/3
f 15/24/1 16/25/1 14/21/1 13/20/1
f 24/38/2 22/35/2 13/20/2 14/22/2
f 21/34/3 24/37/3 14/23/3 16/26/3
f 22/35/5 23/36/5 15/24/5 13/20/5
f 3/3/3 1/1/3 18/29/3 19/30/3
f 5/5/5 7/9/5 20/31/5 17/27/5
f 7/10/6 3/3/6 19/30/6 20/32/6
f 1/1/2 5/6/2 17/28/2 18/29/2
f 19/30/5 18/29/5 23/36/5 22/35/5
f 17/27/3 20/31/3 24/37/3 21/34/3
f 20/32/2 19/30/2 22/35/2 24/38/2
f 18/29/6 17/28/6 21/33/6 23/36/6
f 28/44/6 27/42/6 25/39/6 26/41/6
f 21/34/3 16/26/3 25/40/3 27/43/3
f 15/24/5 23/36/5 28/44/5 26/41/5
